<svg
        xmlns="http://www.w3.org/2000/svg"
        width="150"
        height="35"
        fill="none"
        viewBox="0 0 150 35"
>
    <path
            fill="#CBEA7B"
            d="M12.768 10.389C8.876 6.6 11.558 0 16.988 0c5.432 0 8.113 6.601 4.22 10.389l-4.22 4.106-4.22-4.106Zm.025 13.222C8.9 27.4 11.582 34 17.013 34s8.113-6.601 4.22-10.389l-4.22-4.106-4.22 4.106Zm-2.404-2.379C6.6 25.125 0 22.443 0 17.012s6.601-8.113 10.389-4.22l4.106 4.22-4.106 4.22Zm13.222-.024C27.4 25.1 34 22.419 34 16.988c0-5.432-6.601-8.113-10.389-4.22l-4.106 4.22 4.106 4.22Z"
    />
    <path
            fill="#fff"
            d="M49.11 19.6v-8.55h2.584v11.9H47.97l-5.22-8.534h-.288v8.534h-2.584v-11.9h3.485v.017h.238l5.202 8.534h.306Zm11.985-6.187h2.584v9.537h-2.584v-1.394h-.12c-.611.85-1.478 1.394-3.195 1.394-4.03 0-4.131-3.366-4.131-4.76v-4.777h2.567v4.777c0 .748-.17 2.55 2.312 2.55 2.227 0 2.567-1.428 2.567-2.72v-4.607Zm8.058 2.21v3.587c0 1.377.612 1.19 3.094 1.054v2.516s-.51.17-3.094.17c-2.601 0-2.601-2.125-2.601-3.502v-3.825h-1.258v-2.176h1.258v-2.754h2.6v2.754h3.095v2.176h-3.094Zm10.372-2.21c.68 0 1.241.153 1.683.255l-.408 2.43a6.995 6.995 0 0 0-1.717-.203c-1.921 0-2.482 1.496-2.482 2.788v4.267h-2.584v-9.537h2.584v1.41h.153c.544-.917 1.122-1.41 2.771-1.41Zm5.633 9.537H82.59v-9.47h2.567v9.47Zm0-10.15H82.59v-2.31h2.567v2.31Zm5.632 2.823v3.587c0 1.377.612 1.19 3.094 1.054v2.516s-.51.17-3.094.17c-2.6 0-2.6-2.125-2.6-3.502v-3.825h-1.26v-2.176h1.258v-2.754h2.601v2.754h3.094v2.176H90.79Zm7.381 7.327h-2.567v-9.47h2.567v9.47Zm0-10.15h-2.567v-2.31h2.567v2.31Zm7.078.443c2.907 0 5.321 1.547 5.321 4.862 0 3.349-2.414 4.845-5.321 4.845-2.89 0-5.304-1.547-5.304-4.845 0-3.281 2.414-4.862 5.304-4.862Zm0 7.36c1.632 0 2.788-.781 2.788-2.498 0-1.768-1.156-2.5-2.788-2.5-1.615 0-2.771.698-2.771 2.5 0 1.785 1.156 2.499 2.771 2.499Zm12.954-7.19c4.029 0 4.131 3.383 4.131 4.777v4.76h-2.567v-4.76c0-.748.153-2.55-2.312-2.55-2.244 0-2.567 1.428-2.567 2.72v4.59h-2.584v-9.537h2.584v1.41h.119c.612-.85 1.479-1.41 3.196-1.41Zm8.645 9.537h-2.567v-9.47h2.567v9.47Zm0-10.15h-2.567v-2.31h2.567v2.31Zm6.673 4.37c2.159.323 4.607.697 4.607 2.958 0 2.363-1.7 2.822-4.624 2.822-2.159 0-3.638-.391-4.403-1.156-.663-.663-.663-1.462-.646-1.955v-.187h2.652v.085c0 .816.612 1.19 2.329 1.19 1.037 0 2.023-.136 2.023-.765 0-.714-.918-.85-1.955-.97l-.408-.05c-2.737-.357-4.437-.97-4.437-2.873 0-1.326.765-2.907 4.437-2.907 3.944 0 4.777 1.75 4.777 3.213v.085h-2.635v-.085c0-.748-.646-1.156-2.142-1.156-1.445 0-1.751.527-1.751.816 0 .425.289.663 1.955.918l.221.017Zm9.658-1.547v3.587c0 1.377.612 1.19 3.094 1.054v2.516s-.51.17-3.094.17c-2.601 0-2.601-2.125-2.601-3.502v-3.825h-1.258v-2.176h1.258v-2.754h2.601v2.754h3.094v2.176h-3.094Z"
    />
</svg>
