<svg xmlns="http://www.w3.org/2000/svg" width="200" height="200" fill="none" viewBox="0 0 200 200">
    <path fill="#EEF8D3"
          d="M75.106 61.11C52.206 38.83 67.98 0 99.93 0c31.949 0 47.722 38.83 24.823 61.11L99.93 85.263 75.106 61.11Zm.144 77.78C52.35 161.17 68.124 200 100.074 200c31.949 0 47.722-38.83 24.823-61.11l-24.823-24.153L75.25 138.89Zm-14.14-13.996C38.83 147.793 0 132.02 0 100.07c0-31.949 38.83-47.722 61.11-24.823l24.153 24.823-24.153 24.824Zm77.78-.144c22.28 22.899 61.11 7.126 61.11-24.824 0-31.949-38.83-47.722-61.11-24.823l-24.153 24.823 24.153 24.824Z"/>
</svg>
