<svg xmlns="http://www.w3.org/2000/svg" width="298" height="208" fill="none" viewBox="0 0 298 208">
    <g clip-path="url(#a)">
        <path fill="#1A3129" d="M484.674-52H-67.512v312.182h552.186V-52Z"/>
        <path fill="#234338"
              d="m165.18 29.456-11.678 12.372-12.834-4.798-.925 2.428 14.453 5.405 12.863-13.643-1.879-1.764Zm93.626 25.264-16.419 10.26 1.388 2.197 16.418-10.261-1.387-2.197ZM165.18 29.456l-11.678 12.372-12.834-4.798-.925 2.428 14.453 5.405 12.863-13.643-1.879-1.764Zm93.626 25.264-16.419 10.26 1.388 2.197 16.418-10.261-1.387-2.197ZM165.18 29.456l-11.678 12.372-12.834-4.798-.925 2.428 14.453 5.405 12.863-13.643-1.879-1.764Zm93.626 25.264-16.419 10.26 1.388 2.197 16.418-10.261-1.387-2.197ZM165.18 29.456l-11.678 12.372-12.834-4.798-.925 2.428 14.453 5.405 12.863-13.643-1.879-1.764Zm93.626 25.264-16.419 10.26 1.388 2.197 16.418-10.261-1.387-2.197ZM165.18 29.456l-11.678 12.372-12.834-4.798-.925 2.428 14.453 5.405 12.863-13.643-1.879-1.764Zm93.626 25.264-16.419 10.26 1.388 2.197 16.418-10.261-1.387-2.197ZM165.18 29.456l-11.678 12.372-12.834-4.798-.925 2.428 14.453 5.405 12.863-13.643-1.879-1.764Zm93.626 25.264-16.419 10.26 1.388 2.197 16.418-10.261-1.387-2.197ZM165.18 29.456l-11.678 12.372-12.834-4.798-.925 2.428 14.453 5.405 12.863-13.643-1.879-1.764Zm93.626 25.264-16.419 10.26 1.388 2.197 16.418-10.261-1.387-2.197ZM165.18 29.456l-11.678 12.372-12.834-4.798-.925 2.428 14.453 5.405 12.863-13.643-1.879-1.764Zm93.626 25.264-16.419 10.26 1.388 2.197 16.418-10.261-1.387-2.197Zm75.848-31.912 14.135-19.367 14.54-15.522 1.329 1.33v-8.47L345.841.84l-.087.087-12.458 17.084-9.25-9.135 30.813-31.738-1.879-1.821-32.576 33.588 11.36 11.216-20.668 17.921-7.805-12.631.521-13.73-3.96-8.037-4.076-8.295 15.378-24.34-2.197-1.386-16.158 25.581 2.919 5.926-43.821-26.796a4796.282 4796.282 0 0 0 26.94-10.493l-.954-2.428c-.144.058-15.146 5.955-30.004 11.678-21.274 8.152-27.518 10.204-29.31 10.695l-6.475-10.926 39.341-11.996-.752-2.486-39.948 12.198L197.352-52h-2.37l-.492.29 14.048 23.673c-3.035 3.44-14.134 16.014-14.944 17.083-.838 1.099-19.395 29.224-22.402 33.762-13.065-8.845-29.455-9.25-30.38-9.279h-.173l-.173.058c-.868.231-21.246 5.666-30.062 13.499-2.284 2.023-7.718 2.4-15.32 1.04l2.948-20.725 16.563-57.262-4.365-1.272L93.61 6.274l-3.007 20.899c-13.007-3.093-26.102-9.25-27.056-11.129-1.04-2.37-6.359-11.649-11.07-19.685v5.174c3.989 6.88 7.862 13.644 8.671 15.552 1.532 3.555 17.17 9.885 29.08 12.69l-.55 3.873c-13.094-3.064-26.333-9.28-27.287-11.187-.954-2.197-5.52-10.175-9.914-17.72v5.175c3.555 6.157 6.792 11.851 7.515 13.557 1.561 3.584 17.401 9.972 29.31 12.747l-1.878 13.152 7.486 21.102-.896 21.187-8.47 12.545c-5.029 7.487-10.839 16.043-16.591 24.57l-5.377-7.775-11.07-7.342v5.463l7.833 5.203 5.897 8.498c-4.857 7.14-9.568 14.106-13.73 20.147v8.065a3602.235 3602.235 0 0 0 13.73-20.147c1.07-1.59 2.168-3.18 3.237-4.77l30.785 23.848 16.476 26.824a1742.87 1742.87 0 0 0-8.99 9.799 317.726 317.726 0 0 1-3.671 4.018l-21.621-24.946-.116-.115-17.083-11.62-6.85 9.163 2.08 1.561 5.377-7.169 8.065 5.492-6.996 5.348 1.59 2.081 7.69-5.868 4.393 3.006.78.925-12.4 7.429 1.33 2.226 12.805-7.66 19.193 22.142c-2.023 2.167-3.613 3.786-4.394 4.422-5.925 4.654-23.327 14.54-23.5 14.626l2.89 5.088c.723-.405 17.98-10.204 24.224-15.118 1.821-1.416 5.289-5.261 10.55-11.042 2.284-2.515 4.943-5.434 7.834-8.556l15.695 25.553 5.146 4.046c-13.21 8.123-22.518 13.962-22.923 14.511l2.082 1.561c-.058.058-.087.116-.116.145.896-.752 10.435-6.678 23.153-14.511l13.355 10.522 4.047 9.307 2.399-1.04-2.11-4.857 24.541 19.309 2.832-3.584-31.218-24.541-4.393-10.117-.376-.549c12.054-7.4 25.61-15.638 37.144-22.662l3.035 11.736 35.958 51.799 3.758-2.602-13.267-19.135 23.384-13.788 14.106-7.256 4.481 25.697c-2.197.896-7.747 3.122-13.297 5.492-14.915 6.418-15.089 7.371-15.262 8.296l2.572.463c-.057.26-.173.405-.173.405 1.214-1.359 14.222-7.053 26.622-12.025l2.775 15.956h2.659l-2.919-16.708 12.372-2.254 10.261-13.702 46.538 12.314.665-2.515-45.96-12.169 14.019-35.323 4.972.896 58.245 27.605v-2.89l-57.436-27.229-4.798-.868 6.822-17.141c17.892 11.534 45.151 27.201 55.441 33.04v-3.007c-15.58-8.903-60.644-34.918-68.738-42.751 8.267 4.509 15.06 7.92 20.061 9.828 16.852 10.579 38.791 23.182 48.677 28.848v-3.007c-8.99-5.145-25.871-14.886-40.67-23.933 2.457.231 5 .52 7.457.809 11.216 1.301 21.795 2.544 27.952-1.734 1.214-.839 3.035-2.284 5.232-4.105v-7.66c-3.729 3.208-6.88 5.781-8.585 6.966-4.336 3.006-14.308 1.85-23.934.723-3.064-.347-6.244-.723-9.308-.954-3.757-.289-13.527-5.116-24.743-11.244a17.71 17.71 0 0 1-1.619-1.532c-5.376-6.071-26.044-28.964-41.884-45.44 2.226-.925 3.96-1.561 4.972-1.763 3.382-.636 22.46 3.844 37.78 7.428 32.056 7.545 47.636 10.811 52.146 8.354 1.474-.78 4.827-2.833 9.307-5.579l5.839 5.521v-3.584l-3.526-3.353c1.127-.694 2.312-1.416 3.526-2.197v-6.908c-2.862 1.792-5.55 3.439-7.92 4.914l-32.606-30.93 23.385-26.101c5.666 5.03 11.533 10.232 17.141 15.233v-3.498c-5.347-4.74-10.637-9.48-15.378-13.672l15.378-17.17v-3.902l-17.343 19.338c-4.481-3.96-8.325-7.371-11.013-9.77l-.925-.81-26.42 25.986-9.655-9.163 35.179-30.495.144-.087ZM297.828 5.436l3.353 6.793-.462 12.95-16.476 15.493 10.406 11.678-9.742 8.44-.375.318-4.741 4.105-.173.144-.058.29-2.11 11.677-.752.434-26.767-43.677-4.133-10.926-6.562-4.538-7.573-12.777 38.994-17.054 27.171 16.65Zm-50.845 103.106c8.672 8.845 19.858 20.899 29.195 31.103-1.763-1.012-3.498-2.024-5.174-2.977-19.569-11.331-31.797-18.298-36.248-19.107-1.503-.26-3.324-.289-5.405-.087 6.33-3.324 12.487-6.475 17.632-8.932Zm-42.896 22.662 9.568 5.03 23.992 4.336 2.399 3.902-51.973-6.07a280.854 280.854 0 0 1 16.014-7.198Zm41.364-35.438c-3.96-3.902-7.082-6.764-8.787-7.862-5.695-3.758-22.026-17.257-35.959-31.392l49.66-16.65 24.05 39.225-28.964 16.679Zm-10.204-5.723c2.139 1.416 6.735 5.81 12.488 11.649-.839.404-1.735.809-2.631 1.243-4.336-4.307-7.775-7.458-9.568-8.672-6.301-4.163-25.639-20.234-40.352-35.959l2.804-.954c14.308 14.684 31.363 28.82 37.259 32.693Zm-85.734 11.822 1.792 5.637 22.315 31.651a307.61 307.61 0 0 0-6.128 3.325c-2.168 1.185-4.364 2.572-6.59 4.046-2.631-4.335-11.476-20.118-21.39-37.895l10.001-6.764Zm53.215 23.327c-.607.347-1.098.607-1.445.809a294.656 294.656 0 0 0-15.118 6.822l-7.775-11.678 12.169-11.418 12.169 15.465Zm-10.261-17.228.52-.491.087-.087 20.841-27.374c8.787 7.834 16.592 14.077 20.205 16.448 1.619 1.07 4.654 3.844 8.527 7.689-13.007 6.33-29.802 15.464-37.577 19.771l-12.603-15.956Zm-15.551 10.984-3.007-4.509 12.459-10.03 2.572 3.266-12.024 11.273Zm-4.307-6.821-9.366-19.54 8.99-6.07 12.487 15.839-12.111 9.771Zm-1.59 2.688 12.776 19.107a389.921 389.921 0 0 0-6.099 3.064l-22.257-31.566-1.995-6.243 7.631-5.145 9.944 20.783Zm40.901-36.537-20.841 27.374-.26.26-24.627-31.218 26.419-15.291c6.042 6.474 12.892 13.065 19.309 18.875Zm-41.306 6.215-8.498 5.723-10.984-22.893 3.295-3.382 16.187 20.552Zm-22.633-17.69 11.938 24.887-7.313 4.943-1.012-3.208-20.436-24.83c1.734-1.012 1.821-1.504 1.879-1.88.231-1.213 1.329-10.434 1.532-12.11l13.788 1.676 4.422 5.608-4.798 4.913Zm-17.43-.839a8.327 8.327 0 0 1-1.041.607l-11.504-13.99 14.019 1.705c-.376 3.006-1.214 9.915-1.474 11.678Zm16.968 29.686 1.156 3.642-10.435 7.025c-6.186-11.13-12.69-22.865-18.269-32.982 2.949-1.07 5.203-1.965 6.967-2.717l20.581 25.032Zm-31.826 29.051.318-.203 1.619-1.098 19.743-13.326c.144.26.289.521.433.81 14.337 25.755 19.194 34.224 20.957 37.086-4.134 2.919-8.325 6.243-12.487 9.828l-29.947-32.404-.636-.693Zm54.632 22.893c1.908-1.07 3.816-2.081 5.723-3.093l8.585 33.155-23.731-1.214-.376.318c-.058.058-6.099 4.943-11.996 9.857-3.468 2.89-6.214 5.232-8.18 6.966a123.905 123.905 0 0 0-2.544 2.312l-8.787-13.499c12.689-13.094 28.01-27.431 41.306-34.802Zm50.672-161.901a195.52 195.52 0 0 0 6.995-2.428c5.059-1.821 12.054-4.451 20.783-7.805h.029l19.107 11.678-37.606 16.448-10.407-17.546c.347-.116.694-.231 1.099-.347Zm-25.322 4.914c.579-.78 8.441-9.712 14.251-16.274l15.956 26.911-14.54 11.187-4.769-14.337-12.574-5.03c.954-1.416 1.532-2.312 1.676-2.457Zm-3.15 4.654L204.492.03l5.521 16.649 17.199-13.21 2.023 3.41 7.891 13.298.145.26 6.388 4.422 3.931 10.406 1.417 2.313-50.296 16.852c-6.88-7.14-12.979-14.308-16.679-20.408-2.37-3.93-5.405-7.082-8.73-9.654 4.625-7.082 14.251-21.593 19.223-29.108ZM94.708 30.699c8.585 1.532 14.453.983 17.43-1.676 7.92-7.024 26.767-12.314 28.819-12.863 2.37.086 28.096 1.474 38.849 19.193 3.642 5.983 9.539 12.979 16.187 19.974l-2.746.925c-5.087-5.579-9.481-11.042-12.371-15.84-11.967-19.714-40.006-20.437-41.191-20.437h-.173l-.174.058c-.867.231-21.245 5.665-30.062 13.47-2.283 2.023-7.602 2.4-15.088 1.099l.52-3.903Zm8.989 126.231-31.68-24.54c9.279-13.673 17.199-25.466 17.314-25.582l9.192-13.615 1.012-23.355-7.4-20.9 1.677-11.793c8.44 1.474 14.221.896 17.17-1.705 7.92-7.024 26.766-12.314 28.819-12.863 2.37.086 28.096 1.474 38.849 19.193 2.891 4.74 7.198 10.146 12.198 15.667l-26.246 15.175-14.8-18.788-34.166-4.163-.636-.78-9.799-1.763-.81 4.48 8.152 1.474 12.689 15.407c-2.312.954-5 1.995-7.515 2.92l-1.446.52.752 1.33c.087.173 9.365 16.938 19.136 34.513l-20.523 13.846-1.619 1.098-2.226 1.503 32.606 35.265c-8.701 7.631-17.084 16.101-24.455 23.905l-16.245-26.449Zm35.352 57.581-15.927-25.929a499.028 499.028 0 0 1 4.047-4.249l21.217 32.635c-1.185.722-2.342 1.445-3.498 2.139l-5.839-4.596Zm13.412 10.55-5.405-4.249a359.19 359.19 0 0 0 2.717-1.676l.289.433 2.399 5.492Zm-1.85-9.481-11.359-17.459c2.543-2.63 14.626-12.661 22.517-19.049l23.558 1.185 3.18 12.199a12383.11 12383.11 0 0 0-37.896 23.124Zm29.571-73.247c1.185-.607 2.37-1.214 3.555-1.792l5.492.636L207.96 161.7c-1.011 6.966-2.225 14.539-2.775 16.996l-15.753-.809-9.25-35.554Zm16.245 62.581-6.33-24.396 47.376 2.399-2.746 13.614 2.052 9.742-20.725-6.793-18.471 7.082-1.156-1.648Zm20.696 29.86-18.037-25.958 16.997-6.532 21.274 6.966 2.544 12.111-22.778 13.413Zm25.177-14.713-4.596-21.882 15.783 2.862 2.11 12.169-13.297 6.851Zm-4.711-24.57 2.515-12.43 15.522.781c-.491 1.532-.954 3.815-1.416 7.255a130.867 130.867 0 0 0-.752 7.255l-15.869-2.861Zm18.413 3.555c.433-6.012 1.358-12.545 2.283-15.06l4.481.231-2.949 16.332-3.815-1.503Zm10.406 4.105-4.134-1.619 3.093-17.17 7.978.405 1.272.231-8.209 18.153Zm10.839-17.691 5.81 1.041-10.463 19.078-3.758-1.474 8.411-18.645Zm-2.775 53.389-11.331 2.053-4.422-25.409 11.129 1.735 13.99 9.163-9.366 12.458Zm10.58-14.771-14.279-9.336-12.546-1.966-1.878-10.81 17.43 6.879 11.996-21.853 13.065 2.371-13.788 34.715Zm14.771-37.201-26.073-4.712-15.754-.809-.289-.694a2.086 2.086 0 0 0-.867.636l-18.644-.954-.203-.029v.029l-7.978-.405 2.978-17.719-2.573-.433-3.035 18.037-19.569-.983c.578-2.457 1.358-7.4 2.804-17.372l.086-.607-17.545-19.223 48.879 5.724 44.342 29.166 16.302 3.121-2.861 7.227Zm7.197-18.124-3.353 8.44-16.274-3.15-43.907-28.906-4.25-6.937-24.743-4.481-7.255-3.815c12.285-4.857 22.026-7.4 26.477-6.591 3.671.665 19.974 10.088 34.369 18.413 7.545 4.365 14.511 8.383 20.812 11.909 1.966 2.197 3.527 3.931 4.481 5.001 1.85 2.081 6.937 5.723 13.643 10.117Zm-16.36-20.87c-2.342-1.33-4.712-2.659-7.053-3.989-9.944-10.926-23.674-25.842-34.138-36.537.896-.433 1.763-.809 2.601-1.185 13.239 13.73 30.265 32.461 38.59 41.711Zm44.832-107.674c3.209 2.833 6.62 5.84 10.088 8.961l-23.355 26.044-11.36-10.782 24.627-24.223Zm18.963 69.143c-3.643 2.254-6.389 3.873-7.66 4.567-.607.231-3.614.665-16.939-1.937-8.499-1.648-18.847-4.076-29.022-6.446l2.978-16.534-2.573-.462-2.977 16.418c-21.824-5.116-35.41-8.21-39.774-7.37-1.648.317-4.365 1.329-7.805 2.832-.144.058-.289.115-.434.202-.664-.665-1.3-1.33-1.936-1.965l.694-.405 31.94-18.413 2.255-12.4 14.135-12.257 57.118 54.17Zm-57.87-58.708-8.729-9.799 13.875-13.036 7.399 11.967-12.545 10.868Zm-52.81 16.534 16.418-10.261-1.387-2.197-16.419 10.261 1.388 2.197Zm-76.716-35.93-1.908-1.792-11.678 12.372-12.805-4.798-.925 2.428 14.453 5.405 12.863-13.615Zm91.747 23.472-16.419 10.26 1.388 2.197 16.418-10.261-1.387-2.197ZM165.18 29.456l-11.678 12.372-12.834-4.798-.925 2.428 14.453 5.405 12.863-13.643-1.879-1.764Zm93.626 25.264-16.419 10.26 1.388 2.197 16.418-10.261-1.387-2.197ZM165.18 29.456l-11.678 12.372-12.834-4.798-.925 2.428 14.453 5.405 12.863-13.643-1.879-1.764Zm93.626 25.264-16.419 10.26 1.388 2.197 16.418-10.261-1.387-2.197ZM165.18 29.456l-11.678 12.372-12.834-4.798-.925 2.428 14.453 5.405 12.863-13.643-1.879-1.764Zm93.626 25.264-16.419 10.26 1.388 2.197 16.418-10.261-1.387-2.197ZM165.18 29.456l-11.678 12.372-12.834-4.798-.925 2.428 14.453 5.405 12.863-13.643-1.879-1.764Zm93.626 25.264-16.419 10.26 1.388 2.197 16.418-10.261-1.387-2.197ZM165.18 29.456l-11.678 12.372-12.834-4.798-.925 2.428 14.453 5.405 12.863-13.643-1.879-1.764Zm93.626 25.264-16.419 10.26 1.388 2.197 16.418-10.261-1.387-2.197ZM165.18 29.456l-11.678 12.372-12.834-4.798-.925 2.428 14.453 5.405 12.863-13.643-1.879-1.764Z"/>
        <path fill="#468671"
              d="m282.216 66.773-1.995 11.534-32.259 18.5 4.856 6.33-74.663 38.56-25.668-35.525-2.024-5.261-34.224 23.934-1.098-1.59 36.247-25.322 2.804 7.314 24.541 33.964 71.137-36.739-4.798-6.244 33.386-19.135 1.85-10.667 1.908.347Z"/>
        <path fill="#CBEA7B" d="M281.977 65.155a2.167 2.167 0 1 0 0-4.335 2.167 2.167 0 0 0 0 4.335Z"/>
        <path fill="#CBEA7B"
              d="M285.33 61.628a3.437 3.437 0 0 0-.462-.838 3.792 3.792 0 0 0-.318-.376 3.612 3.612 0 0 0-5.117 0 3.612 3.612 0 0 0 0 5.116l.116.116c1.416 1.3 3.642 1.272 5.001-.116.693-.722 1.069-1.648 1.069-2.572-.029-.434-.087-.896-.289-1.33Zm-1.127 3.584a3.141 3.141 0 0 1-4.423 0 3.154 3.154 0 0 1-.925-2.226c0-.809.318-1.618.925-2.225 1.214-1.214 3.209-1.214 4.452 0 .115.115.202.231.289.347a3.168 3.168 0 0 1-.318 4.104ZM115.192 97.76a8.462 8.462 0 0 0-8.469 8.47c0 4.682 8.469 13.441 8.469 13.499 0-.058 8.469-8.817 8.469-13.499.029-4.683-3.786-8.47-8.469-8.47Zm.058 11.938a3.614 3.614 0 1 1 3.613-3.613 3.596 3.596 0 0 1-3.613 3.613Zm.437 11.938a1.936 1.936 0 1 1-.001 3.873 1.936 1.936 0 0 1 .001-3.873Z"/>
        <path fill="#234338"
              d="m73.548 84.32-2.283-3.296-16.881 11.707-12.14-20.61-6.389-12.43 22.662-3.96c.78 1.937 2.775 6.822 4.856 11.707 5.637 13.153 6.504 13.297 7.313 13.47l.405-2.254c.174.029.29.087.318.115-1.214-1.185-6.215-12.574-10.58-23.442l15.35-2.688-.405-2.255-15.638 2.717-1.995-10.897-12.053-9.048L56.928-7.86l-2.226-.578-10.724 40.497-31.132-12.372.78-4.393 28.27-59.489-2.08-.982L11.459 14.6l-.752 4.22-15.118-6.012C7.961-6.33 25.74-37.778 26.721-39.542l-1.995-1.127c-.318.578-32.027 56.655-40.352 65.27 3.96-7.285 6.966-13.269 8.672-17.691C5.07-12.284 20.13-38.935 21.056-40.582L19.06-41.71c-.203.376-12.892 22.836-24.339 41.538a273.3 273.3 0 0 1 .723-6.59C-3.4-16.649-2.33-25.957-6.087-31.39-8.515-34.888-16.811-44.37-23.633-52h-6.937c7.053 7.862 17.603 19.772 20.234 23.558 2.66 3.816 1.618 12.603.636 21.101-.318 2.717-.636 5.521-.868 8.18-.26 3.296-4.509 11.939-9.914 21.824-.52.607-.954 1.07-1.359 1.417-5.347 4.74-25.523 22.951-40.034 36.912-.838-1.965-1.388-3.468-1.561-4.393-.578-2.977 3.382-19.8 6.562-33.3 6.648-28.24 9.538-41.97 7.37-45.96-.693-1.3-2.485-4.249-4.913-8.209l18.47-19.454-1.676-1.59-18.009 19.02c-3.352-5.434-7.63-12.255-11.88-19.02v9.713c3.035 4.827 5.897 9.423 8.21 13.181l-8.21 8.672v3.324l9.452-9.973c1.966 3.209 3.411 5.637 4.018 6.735.203.55.578 3.18-1.705 14.945-1.445 7.486-3.584 16.62-5.666 25.581l-6.099-1.098v2.341l5.55 1.012c-2.486 10.608-4.422 18.991-5.55 25.061v13.066a84.3 84.3 0 0 0 1.735 4.19c-.607.579-1.157 1.157-1.735 1.706v3.238c.868-.867 1.763-1.764 2.746-2.717.347.751.723 1.532 1.099 2.312a145.027 145.027 0 0 0-3.816 3.96v3.382c1.214-1.387 2.89-3.15 4.885-5.145 5.58 11.475 13.644 26.246 17.43 33.126l-14.048 11.1-.433-.463-.058-.058-7.805-5.925v2.89l6.215 4.712.231.231-6.446 5.088v2.919l3.324-2.63 8.585 10.695-11.909 5.723v2.544l14.28-6.851L-36.38 123.4a468.93 468.93 0 0 0 2.717 5.376l-27.807 19.627-5.493 1.764-.549-.81v5.174l.607-.202 6.215 9.192a1438.63 1438.63 0 0 1-6.822 3.816v2.63c2.63-1.445 5.348-2.977 8.094-4.48l14.51 21.477 31.074-28.733C-7.157 165.833.33 173.233 7.21 179.708l-23.327 14.28-21.622 27.922c-12.053-8.18-22.43-15.175-22.546-15.262l-7.227-4.856v4.856l4.972 3.353c6.59 4.452 14.164 9.539 21.65 14.627l-6.85 4.74-19.772 29.802v1.012h4.134l18.528-27.952 7.516-5.203c17.517 11.88 33.762 23.009 35.12 24.223a3.386 3.386 0 0 1-.26-.347l3.44-2.052c-.347-.607-.636-1.07-31.16-21.824-1.388-.954-2.804-1.908-4.192-2.862l21.015-27.142 23.645-14.511c3.121 2.891 6.04 5.55 8.642 7.92 1.243 1.128 2.428 2.226 3.527 3.238L.446 212.747l-.116.087-10.233 15.06 8.065 6.041 1.388-1.85-6.302-4.711 4.827-7.111 4.712 6.157 1.821-1.388-5.203-6.764 2.63-3.873.81-.694 6.561 10.927 1.966-1.185-6.764-11.274 19.511-16.91c1.908 1.793 3.353 3.18 3.903 3.874 4.104 5.232 12.805 20.552 12.892 20.725l4.48-2.543c-.376-.636-8.99-15.841-13.326-21.362-1.242-1.59-4.624-4.654-9.712-9.307-2.226-2.024-4.77-4.365-7.544-6.909l22.517-13.846 3.585-4.538c7.168 11.62 12.313 19.858 12.805 20.205l1.387-1.85a.4.4 0 0 1 .116.087c-.723-.925-5.926-9.25-12.748-20.379l9.28-11.764 8.208-3.556-.925-2.11-4.278 1.85 17.026-21.621-3.15-2.486-21.622 27.489-8.903 3.874-.492.317a31565.004 31565.004 0 0 1-19.974-32.721L27.994 116l45.555-31.68Zm-21.043 9.712L29.61 109.93l-5.78-15.002 6.156-18.76 10.666-2.226 11.852 20.09Zm-12.979-22.2-19.28 4.047 2.515-13.904 10.724-1.879 6.041 11.736ZM24.611 50.615l-1.445 3.642-15.147-2.746.347-7.024.202-1.098 16.043 7.226ZM9.03 41.047l.925-5.116 16.823 9.221-1.301 3.324L9.03 41.048Zm13.296 15.378-1.33 3.353c-5.29-.375-11.041-1.185-13.267-1.994l.202-3.931 14.395 2.572Zm-8.325 4.943c2.486.318 4.972.55 6.417.665l-2.514 13.962-10.956-2.197.694-13.673c1.33.405 3.353.839 6.36 1.243Zm31.074-26.102 10.984 8.239 1.821 10-22.402 3.903 1.532-9.799 8.065-12.343ZM12.47 22.028l30.583 12.169-8.238 12.574-1.735 11.042-9.51 1.676 6.07-15.377-19.28-10.58 2.11-11.504Zm-2.168-.868L6.14 44.14l-.694 13.875-.607.26c.116.26.26.492.55.752L4.55 75.474l-.029.174h.03l-.348 7.024-15.638-2.63-.375 2.254 15.898 2.688-.867 17.257c-2.168-.52-6.504-1.214-15.292-2.486l-.549-.087-16.938 15.465 5.03-43.099L1.138 32.983l2.775-14.366 6.389 2.543Zm-7.255 83.422-.723 13.875-31.333 8.122c-.55-1.04-1.07-2.081-1.59-3.121l.578-4.828 18.095-16.505c6.157.896 12.834 1.966 14.973 2.457Zm-63.91-41.335c12.111-11.678 28.616-26.68 36.768-34.022a432.42 432.42 0 0 1-3.527 6.215c-9.654 8.758-22.778 20.87-32.2 30.09a60.33 60.33 0 0 0-1.041-2.283Zm9.972 20.003c-2.92-5.579-5.694-11.013-7.862-15.552 7.804-7.66 18.413-17.516 27.402-25.754-.896 1.56-1.792 3.092-2.63 4.567-9.973 17.256-16.13 28.01-16.823 31.94-.26 1.359-.26 2.978-.087 4.799Zm5.145-3.845c.578-3.237 8.903-17.603 16.216-30.293 3.845-6.648 7.371-12.776 10.493-18.326 1.937-1.734 3.469-3.093 4.423-3.96 1.82-1.619 5.058-6.1 8.932-12.025l7.428 2.949-2.775 14.366-25.465 38.704-6.129 3.73-3.93 21.794-3.383 6.388c-4.278-10.84-6.504-19.424-5.81-23.327Zm-7.804 52.724-8.817-10.984 2.862-2.254 9.915 10.579-3.96 2.659Zm5.896-3.96-10.059-10.724 13.615-10.724c.289.549.52.954.694 1.272a239.672 239.672 0 0 0 6.012 13.326l-10.261 6.85Zm8.875-22.633 4.451-8.44 3.816-21.13 3.44-2.11-5.348 45.815a254.828 254.828 0 0 1-6.36-14.135Zm-25.842 48.099 4.972-1.59 27.894-19.684a237.383 237.383 0 0 0 2.92 5.405c1.04 1.908 2.254 3.844 3.555 5.81-3.816 2.312-17.72 10.117-33.416 18.847l-5.925-8.788Zm20.09 29.802-12.864-19.107c.232-.144.463-.26.723-.404 22.69-12.632 30.177-16.91 32.692-18.471 2.573 3.642 5.492 7.342 8.643 11.013l-29.195 26.969Zm50.873-11.765c-11.562-11.186-24.194-24.656-30.669-36.392a429.968 429.968 0 0 1-2.746-5.029l29.195-7.574-1.07 20.928.29.347c.029.058 4.336 5.376 8.7 10.579 2.544 3.064 4.625 5.492 6.157 7.198a85.188 85.188 0 0 0 2.052 2.254l-11.909 7.689Zm32.75-18.557 4.828-2.081-3.758 4.74c-.491-.78-.983-1.59-1.474-2.399l.404-.26Zm-.404 4.567-4.047 5.145-22.835 14.048c-1.214-1.156-2.486-2.341-3.758-3.555l28.761-18.702a78.24 78.24 0 0 0 1.879 3.064Zm-3.093-5.03-15.378 10.002c-2.312-2.226-11.157-12.892-16.794-19.83l1.04-20.754 10.753-2.804c6.793 11.158 14.02 23.038 20.379 33.386Zm-9.423-40.381L4.666 117.85l2.11-41.74 11.996 2.428 8.585-1.792-5.984 18.269 6.244 16.273-1.445.983Z"/>
    </g>
    <defs>
        <clipPath id="a">
            <path fill="#fff" d="M0 0h298v208H0z"/>
        </clipPath>
    </defs>
</svg>
